NotoSansOldItalic-Regular.ufo
<glyph name="u10300" format="2">
  <advance width="718"/>
  <unicode hex="10300"/>
  <outline>
    <contour>
      <point x="602" y="-7" type="curve"/>
      <point x="691" y="7" type="line"/>
      <point x="599" y="430"/>
      <point x="549" y="527"/>
      <point x="166" y="718" type="curve"/>
      <point x="117" y="703" type="line"/>
      <point x="117" y="0" type="line"/>
      <point x="197" y="0" type="line"/>
      <point x="494" y="362" type="line"/>
      <point x="532" y="291"/>
      <point x="564" y="172"/>
    </contour>
    <contour>
      <point x="206" y="142" type="line"/>
      <point x="206" y="608" type="line"/>
      <point x="305" y="551"/>
      <point x="381" y="503"/>
      <point x="440" y="437" type="curve"/>
    </contour>
  </outline>
</glyph>
<glyph name="u10302" format="2">
  <advance width="525"/>
  <unicode hex="10302"/>
  <outline>
    <contour>
      <point x="449" y="-22" type="curve"/>
      <point x="487" y="53" type="line"/>
      <point x="263" y="143"/>
      <point x="157" y="287"/>
      <point x="157" y="362" type="curve" smooth="yes"/>
      <point x="157" y="430"/>
      <point x="247" y="569"/>
      <point x="485" y="655" type="curve"/>
      <point x="445" y="732" type="line"/>
      <point x="195" y="649"/>
      <point x="59" y="486"/>
      <point x="59" y="365" type="curve" smooth="yes"/>
      <point x="59" y="239"/>
      <point x="215" y="68"/>
    </contour>
  </outline>
</glyph>
<glyph name="u10303" format="2">
  <advance width="676"/>
  <unicode hex="10303"/>
  <outline>
    <contour>
      <point x="168" y="-6" type="line"/>
      <point x="507" y="126"/>
      <point x="621" y="280"/>
      <point x="621" y="357" type="curve" smooth="yes"/>
      <point x="621" y="454"/>
      <point x="461" y="610"/>
      <point x="170" y="724" type="curve"/>
      <point x="117" y="712" type="line"/>
      <point x="117" y="12" type="line"/>
    </contour>
    <contour>
      <point x="207" y="99" type="curve"/>
      <point x="207" y="618" type="line"/>
      <point x="375" y="553"/>
      <point x="522" y="431"/>
      <point x="522" y="357" type="curve" smooth="yes"/>
      <point x="522" y="304"/>
      <point x="431" y="191"/>
    </contour>
  </outline>
</glyph>
<glyph name="u10304" format="2">
  <advance width="575"/>
  <unicode hex="10304"/>
  <outline>
    <contour>
      <point x="495" y="-12" type="line"/>
      <point x="534" y="61" type="line"/>
      <point x="207" y="226" type="line"/>
      <point x="207" y="378" type="line"/>
      <point x="478" y="262" type="line"/>
      <point x="510" y="336" type="line"/>
      <point x="207" y="463" type="line"/>
      <point x="207" y="621" type="line"/>
      <point x="475" y="518" type="line"/>
      <point x="505" y="594" type="line"/>
      <point x="154" y="723" type="line"/>
      <point x="117" y="711" type="line"/>
      <point x="117" y="0" type="line"/>
      <point x="207" y="0" type="line"/>
      <point x="207" y="136" type="line"/>
    </contour>
  </outline>
</glyph>
<glyph name="u10308" format="2">
  <advance width="807"/>
  <unicode hex="10308"/>
  <outline>
    <contour>
      <point x="402" y="32" type="curve" smooth="yes"/>
      <point x="597" y="32"/>
      <point x="736" y="174"/>
      <point x="736" y="362" type="curve" smooth="yes"/>
      <point x="736" y="570"/>
      <point x="574" y="687"/>
      <point x="404" y="687" type="curve" smooth="yes"/>
      <point x="224" y="687"/>
      <point x="71" y="570"/>
      <point x="71" y="362" type="curve" smooth="yes"/>
      <point x="71" y="174"/>
      <point x="210" y="32"/>
    </contour>
    <contour>
      <point x="403" y="108" type="curve" smooth="yes"/>
      <point x="345" y="108"/>
      <point x="296" y="123"/>
      <point x="257" y="150" type="curve"/>
      <point x="402" y="308" type="line"/>
      <point x="546" y="148" type="line"/>
      <point x="507" y="122"/>
      <point x="459" y="108"/>
    </contour>
    <contour>
      <point x="201" y="201" type="line"/>
      <point x="172" y="243"/>
      <point x="154" y="297"/>
      <point x="154" y="362" type="curve" smooth="yes"/>
      <point x="154" y="428"/>
      <point x="172" y="482"/>
      <point x="203" y="524" type="curve"/>
      <point x="349" y="364" type="line"/>
    </contour>
    <contour>
      <point x="603" y="200" type="curve"/>
      <point x="451" y="364" type="line"/>
      <point x="601" y="526" type="line"/>
      <point x="633" y="484"/>
      <point x="653" y="429"/>
      <point x="653" y="362" type="curve" smooth="yes"/>
      <point x="653" y="296"/>
      <point x="634" y="241"/>
    </contour>
    <contour>
      <point x="402" y="420" type="line"/>
      <point x="260" y="574" type="line"/>
      <point x="298" y="599"/>
      <point x="345" y="613"/>
      <point x="402" y="613" type="curve" smooth="yes"/>
      <point x="457" y="613"/>
      <point x="505" y="599"/>
      <point x="543" y="575" type="curve"/>
    </contour>
  </outline>
</glyph>
<glyph name="u10309" format="2">
  <advance width="324"/>
  <unicode hex="10309"/>
  <outline>
    <contour>
      <point x="117" y="0" type="line"/>
      <point x="207" y="0" type="line"/>
      <point x="207" y="714" type="line"/>
      <point x="117" y="714" type="line"/>
    </contour>
  </outline>
</glyph>
<glyph name="u1030A" format="2">
  <advance width="651"/>
  <unicode hex="1030A"/>
  <outline>
    <contour>
      <point x="207" y="0" type="line"/>
      <point x="207" y="365" type="line"/>
      <point x="533" y="50" type="line"/>
      <point x="599" y="115" type="line"/>
      <point x="324" y="378" type="line"/>
      <point x="603" y="609" type="line"/>
      <point x="545" y="675" type="line"/>
      <point x="207" y="386" type="line"/>
      <point x="207" y="714" type="line"/>
      <point x="117" y="714" type="line"/>
      <point x="117" y="0" type="line"/>
    </contour>
  </outline>
</glyph>
<glyph name="u10310" format="2">
  <advance width="660"/>
  <unicode hex="10310"/>
  <outline>
    <contour>
      <point x="207" y="0" type="line"/>
      <point x="207" y="604" type="line"/>
      <point x="492" y="604" type="line"/>
      <point x="492" y="365" type="line"/>
      <point x="582" y="365" type="line"/>
      <point x="582" y="684" type="line"/>
      <point x="117" y="684" type="line"/>
      <point x="117" y="0" type="line"/>
    </contour>
  </outline>
</glyph>
<glyph name="u10311" format="2">
  <advance width="773"/>
  <unicode hex="10311"/>
  <outline>
    <contour>
      <point x="110" y="0" type="line"/>
      <point x="193" y="0" type="line"/>
      <point x="193" y="584" type="line"/>
      <point x="383" y="419" type="line"/>
      <point x="574" y="584" type="line"/>
      <point x="574" y="0" type="line"/>
      <point x="663" y="0" type="line"/>
      <point x="663" y="710" type="line"/>
      <point x="616" y="720" type="line"/>
      <point x="384" y="525" type="line"/>
      <point x="157" y="720" type="line"/>
      <point x="110" y="710" type="line"/>
    </contour>
  </outline>
</glyph>
<glyph name="u10315" format="2">
  <advance width="627"/>
  <unicode hex="10315"/>
  <outline>
    <contour>
      <point x="359" y="0" type="line"/>
      <point x="359" y="424" type="line"/>
      <point x="604" y="496" type="line"/>
      <point x="578" y="576" type="line"/>
      <point x="359" y="513" type="line"/>
      <point x="359" y="714" type="line"/>
      <point x="269" y="714" type="line"/>
      <point x="269" y="488" type="line"/>
      <point x="23" y="419" type="line"/>
      <point x="49" y="340" type="line"/>
      <point x="269" y="402" type="line"/>
      <point x="269" y="0" type="line"/>
    </contour>
  </outline>
</glyph>
<glyph name="u10318" format="2">
  <advance width="746"/>
  <unicode hex="10318"/>
  <outline>
    <contour>
      <point x="332" y="-50" type="line"/>
      <point x="418" y="-50" type="line"/>
      <point x="418" y="156" type="line"/>
      <point x="587" y="172"/>
      <point x="681" y="296"/>
      <point x="681" y="426" type="curve" smooth="yes"/>
      <point x="681" y="569"/>
      <point x="578" y="695"/>
      <point x="374" y="695" type="curve" smooth="yes"/>
      <point x="203" y="695"/>
      <point x="65" y="589"/>
      <point x="65" y="426" type="curve" smooth="yes"/>
      <point x="65" y="305"/>
      <point x="146" y="172"/>
      <point x="332" y="156" type="curve"/>
    </contour>
    <contour>
      <point x="332" y="230" type="line"/>
      <point x="230" y="244"/>
      <point x="157" y="316"/>
      <point x="157" y="426" type="curve" smooth="yes"/>
      <point x="157" y="537"/>
      <point x="229" y="606"/>
      <point x="332" y="618" type="curve"/>
    </contour>
    <contour>
      <point x="418" y="230" type="curve"/>
      <point x="418" y="617" type="line"/>
      <point x="516" y="604"/>
      <point x="590" y="536"/>
      <point x="590" y="426" type="curve" smooth="yes"/>
      <point x="590" y="316"/>
      <point x="517" y="244"/>
    </contour>
  </outline>
</glyph>
<glyph name="u10319" format="2">
  <advance width="711"/>
  <unicode hex="10319"/>
  <outline>
    <contour>
      <point x="314" y="0" type="line"/>
      <point x="404" y="0" type="line"/>
      <point x="404" y="217" type="line"/>
      <point x="698" y="547" type="line"/>
      <point x="632" y="603" type="line"/>
      <point x="404" y="335" type="line"/>
      <point x="404" y="714" type="line"/>
      <point x="314" y="714" type="line"/>
      <point x="314" y="335" type="line"/>
      <point x="82" y="607" type="line"/>
      <point x="13" y="550" type="line"/>
      <point x="314" y="217" type="line"/>
    </contour>
  </outline>
</glyph>
<glyph name="u1031A" format="2">
  <advance width="653"/>
  <unicode hex="1031A"/>
  <outline>
    <contour>
      <point x="328" y="-10" type="curve" smooth="yes"/>
      <point x="473" y="-10"/>
      <point x="578" y="76"/>
      <point x="578" y="187" type="curve" smooth="yes"/>
      <point x="578" y="276"/>
      <point x="520" y="331"/>
      <point x="436" y="361" type="curve"/>
      <point x="520" y="397"/>
      <point x="565" y="464"/>
      <point x="565" y="528" type="curve" smooth="yes"/>
      <point x="565" y="624"/>
      <point x="479" y="724"/>
      <point x="326" y="724" type="curve" smooth="yes"/>
      <point x="189" y="724"/>
      <point x="86" y="630"/>
      <point x="86" y="523" type="curve" smooth="yes"/>
      <point x="86" y="463"/>
      <point x="129" y="390"/>
      <point x="214" y="359" type="curve"/>
      <point x="123" y="324"/>
      <point x="75" y="260"/>
      <point x="75" y="184" type="curve" smooth="yes"/>
      <point x="75" y="71"/>
      <point x="181" y="-10"/>
    </contour>
    <contour>
      <point x="326" y="67" type="curve" smooth="yes"/>
      <point x="238" y="67"/>
      <point x="166" y="120"/>
      <point x="166" y="191" type="curve" smooth="yes"/>
      <point x="166" y="268"/>
      <point x="241" y="322"/>
      <point x="321" y="322" type="curve" smooth="yes"/>
      <point x="413" y="322"/>
      <point x="487" y="270"/>
      <point x="487" y="201" type="curve" smooth="yes"/>
      <point x="487" y="117"/>
      <point x="413" y="67"/>
    </contour>
    <contour>
      <point x="328" y="398" type="curve" smooth="yes"/>
      <point x="245" y="398"/>
      <point x="179" y="453"/>
      <point x="179" y="520" type="curve" smooth="yes"/>
      <point x="179" y="581"/>
      <point x="236" y="645"/>
      <point x="324" y="645" type="curve" smooth="yes"/>
      <point x="413" y="645"/>
      <point x="471" y="582"/>
      <point x="471" y="520" type="curve" smooth="yes"/>
      <point x="471" y="450"/>
      <point x="408" y="398"/>
    </contour>
  </outline>
</glyph>
<glyph name="u1031C" format="2">
  <advance width="605"/>
  <unicode hex="1031C"/>
  <outline>
    <contour>
      <point x="207" y="437" type="curve"/>
      <point x="207" y="714" type="line"/>
      <point x="117" y="714" type="line"/>
      <point x="117" y="10" type="line"/>
      <point x="170" y="-9" type="line"/>
      <point x="485" y="67"/>
      <point x="563" y="158"/>
      <point x="563" y="224" type="curve" smooth="yes"/>
      <point x="563" y="291"/>
      <point x="471" y="367"/>
    </contour>
    <contour>
      <point x="207" y="82" type="curve"/>
      <point x="207" y="357" type="line"/>
      <point x="402" y="303"/>
      <point x="460" y="252"/>
      <point x="460" y="218" type="curve" smooth="yes"/>
      <point x="460" y="187"/>
      <point x="411" y="139"/>
    </contour>
  </outline>
</glyph>
<glyph name="u10320" format="2">
  <advance width="350"/>
  <unicode hex="10320"/>
  <outline>
    <contour>
      <point x="130" y="0" type="line"/>
      <point x="220" y="0" type="line"/>
      <point x="220" y="714" type="line"/>
      <point x="130" y="714" type="line"/>
    </contour>
  </outline>
</glyph>
<glyph name="u10322" format="2">
  <advance width="638"/>
  <unicode hex="10322"/>
  <outline>
    <contour>
      <point x="105" y="20" type="line"/>
      <point x="317" y="305" type="line"/>
      <point x="526" y="20" type="line"/>
      <point x="608" y="60" type="line"/>
      <point x="371" y="369" type="line"/>
      <point x="591" y="654" type="line"/>
      <point x="516" y="694" type="line"/>
      <point x="320" y="429" type="line"/>
      <point x="125" y="694" type="line"/>
      <point x="45" y="654" type="line"/>
      <point x="266" y="367" type="line"/>
      <point x="30" y="60" type="line"/>
    </contour>
  </outline>
</glyph>
<glyph name="u1032E" format="2">
  <advance width="711"/>
  <unicode hex="1032E"/>
  <outline>
    <contour>
      <point x="404" y="719" type="line"/>
      <point x="314" y="719" type="line"/>
      <point x="13" y="386" type="line"/>
      <point x="82" y="329" type="line"/>
      <point x="314" y="601" type="line"/>
      <point x="314" y="0" type="line"/>
      <point x="404" y="0" type="line"/>
      <point x="404" y="601" type="line"/>
      <point x="632" y="333" type="line"/>
      <point x="698" y="389" type="line"/>
    </contour>
  </outline>
</glyph>
<glyph name="u10301_r" format="2">
  <advance width="627"/>
  <outline>
    <contour>
      <point x="454" y="-16" type="curve"/>
      <point x="510" y="8" type="line"/>
      <point x="510" y="707" type="line"/>
      <point x="457" y="728" type="line"/>
      <point x="237" y="683"/>
      <point x="84" y="597"/>
      <point x="84" y="524" type="curve" smooth="yes"/>
      <point x="84" y="470"/>
      <point x="158" y="424"/>
      <point x="287" y="365" type="curve"/>
      <point x="125" y="286"/>
      <point x="70" y="227"/>
      <point x="70" y="170" type="curve" smooth="yes"/>
      <point x="70" y="112"/>
      <point x="194" y="32"/>
    </contour>
    <contour>
      <point x="420" y="75" type="line"/>
      <point x="270" y="110"/>
      <point x="175" y="157"/>
      <point x="175" y="183" type="curve" smooth="yes"/>
      <point x="175" y="210"/>
      <point x="230" y="265"/>
      <point x="420" y="350" type="curve"/>
    </contour>
    <contour>
      <point x="420" y="381" type="line"/>
      <point x="326" y="421"/>
      <point x="186" y="485"/>
      <point x="186" y="524" type="curve" smooth="yes"/>
      <point x="186" y="563"/>
      <point x="301" y="611"/>
      <point x="420" y="641" type="curve"/>
    </contour>
  </outline>
</glyph>
<glyph name="u10303_r" format="2">
  <advance width="676"/>
  <outline>
    <contour>
      <point x="508" y="-6" type="curve"/>
      <point x="559" y="12" type="line"/>
      <point x="559" y="712" type="line"/>
      <point x="506" y="724" type="line"/>
      <point x="215" y="610"/>
      <point x="55" y="454"/>
      <point x="55" y="357" type="curve" smooth="yes"/>
      <point x="55" y="280"/>
      <point x="169" y="126"/>
    </contour>
    <contour>
      <point x="469" y="99" type="line"/>
      <point x="245" y="191"/>
      <point x="154" y="304"/>
      <point x="154" y="357" type="curve" smooth="yes"/>
      <point x="154" y="431"/>
      <point x="301" y="553"/>
      <point x="469" y="618" type="curve"/>
    </contour>
  </outline>
</glyph>
<glyph name="u10304_r" format="2">
  <advance width="575"/>
  <outline>
    <contour>
      <point x="80" y="-12" type="line"/>
      <point x="368" y="136" type="line"/>
      <point x="368" y="0" type="line"/>
      <point x="458" y="0" type="line"/>
      <point x="458" y="711" type="line"/>
      <point x="421" y="723" type="line"/>
      <point x="70" y="594" type="line"/>
      <point x="100" y="518" type="line"/>
      <point x="368" y="621" type="line"/>
      <point x="368" y="463" type="line"/>
      <point x="65" y="336" type="line"/>
      <point x="97" y="262" type="line"/>
      <point x="368" y="378" type="line"/>
      <point x="368" y="226" type="line"/>
      <point x="41" y="61" type="line"/>
    </contour>
  </outline>
</glyph>
<glyph name="u10305_r" format="2">
  <advance width="568"/>
  <outline>
    <contour>
      <point x="361" y="0" type="line"/>
      <point x="451" y="0" type="line"/>
      <point x="451" y="713" type="line"/>
      <point x="415" y="725" type="line"/>
      <point x="60" y="575" type="line"/>
      <point x="97" y="496" type="line"/>
      <point x="361" y="612" type="line"/>
      <point x="361" y="385" type="line"/>
      <point x="47" y="254" type="line"/>
      <point x="83" y="175" type="line"/>
      <point x="361" y="295" type="line"/>
    </contour>
  </outline>
</glyph>
<glyph name="u1030B_r" format="2">
  <advance width="567"/>
  <outline>
    <contour>
      <point x="409" y="-10" type="line"/>
      <point x="450" y="7" type="line"/>
      <point x="450" y="714" type="line"/>
      <point x="360" y="714" type="line"/>
      <point x="360" y="100" type="line"/>
      <point x="78" y="226" type="line"/>
      <point x="37" y="146" type="line"/>
    </contour>
  </outline>
</glyph>
<glyph name="u1030C_r" format="2">
  <advance width="864"/>
  <outline>
    <contour>
      <point x="718" y="-11" type="line"/>
      <point x="806" y="8" type="line"/>
      <point x="656" y="694" type="line"/>
      <point x="566" y="694" type="line"/>
      <point x="406" y="357" type="line"/>
      <point x="264" y="694" type="line"/>
      <point x="181" y="694" type="line"/>
      <point x="40" y="340" type="line"/>
      <point x="123" y="313" type="line"/>
      <point x="223" y="574" type="line"/>
      <point x="367" y="240" type="line"/>
      <point x="440" y="240" type="line"/>
      <point x="593" y="567" type="line"/>
    </contour>
  </outline>
</glyph>
<glyph name="u1030D_r" format="2">
  <advance width="728"/>
  <outline>
    <contour>
      <point x="581" y="-10" type="line"/>
      <point x="670" y="10" type="line"/>
      <point x="530" y="694" type="line"/>
      <point x="445" y="694" type="line"/>
      <point x="251" y="355" type="line"/>
      <point x="126" y="703" type="line"/>
      <point x="40" y="675" type="line"/>
      <point x="200" y="240" type="line"/>
      <point x="277" y="240" type="line"/>
      <point x="464" y="566" type="line"/>
    </contour>
  </outline>
</glyph>
<glyph name="u10314_r" format="2">
  <advance width="510"/>
  <outline>
    <contour>
      <point x="397" y="-35" type="curve"/>
      <point x="429" y="43" type="line"/>
      <point x="259" y="97"/>
      <point x="169" y="165"/>
      <point x="169" y="196" type="curve" smooth="yes"/>
      <point x="169" y="282"/>
      <point x="436" y="394"/>
      <point x="436" y="522" type="curve" smooth="yes"/>
      <point x="436" y="596"/>
      <point x="309" y="678"/>
      <point x="114" y="738" type="curve"/>
      <point x="82" y="661" type="line"/>
      <point x="229" y="614"/>
      <point x="337" y="554"/>
      <point x="337" y="517" type="curve" smooth="yes"/>
      <point x="337" y="439"/>
      <point x="75" y="319"/>
      <point x="75" y="192" type="curve" smooth="yes"/>
      <point x="75" y="121"/>
      <point x="162" y="48"/>
    </contour>
  </outline>
</glyph>
<glyph name="u10315_r" format="2">
  <advance width="627"/>
  <outline>
    <contour>
      <point x="268" y="0" type="line"/>
      <point x="358" y="0" type="line"/>
      <point x="358" y="402" type="line"/>
      <point x="578" y="340" type="line"/>
      <point x="604" y="419" type="line"/>
      <point x="358" y="488" type="line"/>
      <point x="358" y="714" type="line"/>
      <point x="268" y="714" type="line"/>
      <point x="268" y="513" type="line"/>
      <point x="49" y="576" type="line"/>
      <point x="23" y="496" type="line"/>
      <point x="268" y="424" type="line"/>
    </contour>
  </outline>
</glyph>
<glyph name="u1031B_r" format="2">
  <advance width="605"/>
  <outline>
    <contour>
      <point x="398" y="277" type="curve"/>
      <point x="398" y="0" type="line"/>
      <point x="488" y="0" type="line"/>
      <point x="488" y="704" type="line"/>
      <point x="435" y="723" type="line"/>
      <point x="120" y="647"/>
      <point x="42" y="556"/>
      <point x="42" y="490" type="curve" smooth="yes"/>
      <point x="42" y="423"/>
      <point x="134" y="347"/>
    </contour>
    <contour>
      <point x="398" y="632" type="curve"/>
      <point x="398" y="357" type="line"/>
      <point x="203" y="411"/>
      <point x="145" y="462"/>
      <point x="145" y="496" type="curve" smooth="yes"/>
      <point x="145" y="527"/>
      <point x="194" y="575"/>
    </contour>
  </outline>
</glyph>
<glyph name="u1032D_r" format="2">
  <advance width="591"/>
  <outline>
    <contour>
      <point x="63" y="37" type="line"/>
      <point x="113" y="-37" type="line"/>
      <point x="532" y="333" type="line"/>
      <point x="532" y="410" type="line"/>
      <point x="113" y="748" type="line"/>
      <point x="59" y="677" type="line"/>
      <point x="445" y="370" type="line"/>
    </contour>
  </outline>
</glyph>
<glyph name="u1032E_r" format="2">
  <advance width="711"/>
  <outline>
    <contour>
      <point x="307" y="719" type="line"/>
      <point x="13" y="389" type="line"/>
      <point x="79" y="333" type="line"/>
      <point x="307" y="601" type="line"/>
      <point x="307" y="0" type="line"/>
      <point x="397" y="0" type="line"/>
      <point x="397" y="601" type="line"/>
      <point x="629" y="329" type="line"/>
      <point x="698" y="386" type="line"/>
      <point x="397" y="719" type="line"/>
    </contour>
  </outline>
</glyph>
<glyph name="u1032F_r" format="2">
  <advance width="598"/>
  <outline>
    <contour>
      <point x="275" y="246" type="curve"/>
      <point x="127" y="210"/>
      <point x="74" y="158"/>
      <point x="74" y="119" type="curve" smooth="yes"/>
      <point x="74" y="76"/>
      <point x="187" y="17"/>
      <point x="427" y="-16" type="curve"/>
      <point x="481" y="8" type="line"/>
      <point x="481" y="707" type="line"/>
      <point x="430" y="728" type="line"/>
      <point x="191" y="695"/>
      <point x="74" y="624"/>
      <point x="74" y="581" type="curve" smooth="yes"/>
      <point x="74" y="542"/>
      <point x="127" y="502"/>
      <point x="275" y="462" type="curve"/>
      <point x="158" y="435"/>
      <point x="88" y="389"/>
      <point x="88" y="352" type="curve" smooth="yes"/>
      <point x="88" y="316"/>
      <point x="158" y="273"/>
    </contour>
    <contour>
      <point x="183" y="575" type="curve" smooth="yes"/>
      <point x="183" y="593"/>
      <point x="259" y="621"/>
      <point x="395" y="645" type="curve"/>
      <point x="395" y="479" type="line"/>
      <point x="229" y="531"/>
      <point x="183" y="557"/>
    </contour>
    <contour>
      <point x="193" y="352" type="curve" smooth="yes"/>
      <point x="193" y="378"/>
      <point x="309" y="420"/>
      <point x="395" y="441" type="curve"/>
      <point x="395" y="264" type="line"/>
      <point x="309" y="285"/>
      <point x="193" y="327"/>
    </contour>
    <contour>
      <point x="395" y="61" type="line"/>
      <point x="261" y="85"/>
      <point x="183" y="112"/>
      <point x="183" y="130" type="curve" smooth="yes"/>
      <point x="183" y="148"/>
      <point x="229" y="182"/>
      <point x="395" y="228" type="curve"/>
    </contour>
  </outline>
</glyph>
